<svg width="375" height="375" viewBox="0 0 375 375" fill="none" xmlns="http://www.w3.org/2000/svg">
<g clip-path="url(#clip0_210_125)">
<path d="M375.005 184.859C375.005 82.7643 291.059 0 187.505 0C83.952 0 0.00537109 82.7643 0.00537109 184.859V190.141C0.00537109 292.236 83.952 375 187.505 375C291.059 375 375.005 292.236 375.005 190.141V184.859Z" fill="#5083FC"/>
<path d="M41.5339 208.479C42.2196 208.114 42.7071 207.83 43.2054 207.579C55.3912 201.547 67.9613 196.325 80.8339 191.946C99.675 185.373 118.896 180.112 138.273 175.42C155.496 171.236 172.832 167.609 190.312 164.705C201.895 162.782 213.514 161.089 225.134 159.509C236.196 157.982 247.275 156.766 258.348 155.47C267.595 154.398 276.845 153.368 286.098 152.379C287.553 152.302 289.01 152.302 290.464 152.379C290.154 153.145 289.457 153.182 288.938 153.418C283.768 155.711 278.571 157.95 273.402 160.248C245.823 172.554 218.711 185.829 192.343 200.63C175.318 210.22 158.893 220.762 142.891 231.932C140.641 233.507 138.311 234.986 136.082 236.587C135.418 237.109 134.629 237.447 133.794 237.57C132.959 237.693 132.106 237.597 131.32 237.289C125.052 235.2 118.741 233.229 112.446 231.182C111.959 231.021 111.471 230.839 110.673 230.555C132.07 215.78 154.499 202.558 177.788 190.993C177.252 191.175 176.716 191.346 176.18 191.529C161.001 197.449 146.127 204.125 131.614 211.532C122.116 216.305 112.682 221.212 103.259 226.13C102.434 226.595 101.52 226.876 100.577 226.956C99.6341 227.035 98.6852 226.911 97.7947 226.591C90.8304 224.298 83.8018 222.096 76.8 219.852C76.3125 219.696 75.8304 219.498 75.2732 219.316C93.2153 210.143 111.665 201.997 130.532 194.92C149.282 187.72 168.391 181.489 187.682 175.757C186.155 176.03 184.554 176.293 182.995 176.598C170.236 179.188 157.652 182.576 145.318 186.745C121.619 194.563 98.3694 203.682 75.675 214.061L70.8964 216.204C69.3945 216.911 67.6779 217.015 66.1018 216.493L42.0804 208.816C41.8952 208.714 41.7163 208.602 41.5447 208.479H41.5339Z" fill="white"/>
<path d="M128.17 94.35C128.936 94.3982 129.482 94.3982 130.023 94.4732L158.095 98.759L182.089 102.375C185.073 102.825 188.052 103.296 191.036 103.709C192.302 103.892 193.577 104.001 194.855 104.036C196.998 104.084 199.2 103.95 201.359 104.036C206.598 104.025 211.823 103.514 216.964 102.509C219.959 102.096 222.932 101.625 225.911 101.18C227.444 100.959 229.007 101.227 230.379 101.946C237.091 105.321 243.771 108.718 250.516 112.061C251.237 112.401 251.853 112.929 252.301 113.588C252.748 114.248 253.011 115.015 253.061 115.811C253.6 120.064 254.157 124.311 254.732 128.55L257.786 151.195C257.888 151.918 257.93 152.652 258.016 153.546L213.22 159.064C212.148 152.02 211.313 144.959 210.348 137.909C209.384 130.859 208.468 123.868 207.541 116.909C202.583 116.497 197.6 116.468 192.638 116.823C190.495 132.3 188.352 147.83 186.209 163.275L139.141 173.073C139.117 172.716 139.117 172.359 139.141 172.002C140.445 162.57 141.757 153.141 143.079 143.716C144.3 134.809 145.514 125.902 146.721 116.995C147.102 114.171 147.488 111.338 147.927 108.52C148.087 107.918 148.026 107.279 147.755 106.718C147.483 106.158 147.02 105.713 146.448 105.466C140.914 102.359 135.439 99.1447 129.954 95.9625C129.564 95.8197 129.206 95.6014 128.901 95.3201C128.596 95.0388 128.349 94.7 128.175 94.3232L128.17 94.35Z" fill="white"/>
<path d="M217.355 189.22C231.284 181.95 245.47 175.082 260.009 168.407C260.266 170.191 260.545 171.782 260.775 173.379L263.829 196.489C264.938 204.772 266.02 213.054 267.139 221.336C268.023 227.888 268.95 234.429 269.818 240.98C270.584 246.905 271.393 252.83 272.175 258.75C272.609 261.997 273.059 265.248 273.466 268.5C273.67 270.193 273.504 270.423 271.816 270.675C267.236 271.355 262.709 272.004 258.161 272.673L233.052 276.359C232.211 276.482 231.38 276.627 230.539 276.723C229.27 276.873 229.013 276.723 228.857 275.48C228.318 271.827 227.809 268.163 227.33 264.488C226.42 257.841 225.527 251.188 224.652 244.527L221.936 224.25L218.882 201.605L217.355 189.97C217.339 189.718 217.339 189.466 217.355 189.214V189.22Z" fill="white"/>
<path d="M124.104 282.547C124.038 281.53 124.038 280.51 124.104 279.493C125.175 271.639 126.3 263.791 127.409 255.922C127.897 252.407 128.432 248.904 128.845 245.395C128.887 244.747 129.086 244.12 129.424 243.566C129.761 243.011 130.228 242.547 130.784 242.213C143.959 233.455 157.113 224.668 170.245 215.85C172.8 214.157 175.473 212.636 178.093 211.029C178.447 210.814 178.859 210.648 179.48 210.311C179.422 211.195 179.411 211.838 179.32 212.486L176.266 234.793C175.616 239.436 174.975 244.095 174.343 248.77C174.235 249.477 173.965 250.15 173.554 250.737C173.143 251.323 172.603 251.807 171.975 252.15C168.225 254.518 164.475 256.913 160.725 259.302L126.579 281.1C125.85 281.561 125.073 281.973 124.104 282.547Z" fill="white"/>
</g>
<defs>
<clipPath id="clip0_210_125">
<rect width="375" height="375" fill="white"/>
</clipPath>
</defs>
</svg>
