<svg xmlns="http://www.w3.org/2000/svg" width="24" height="24" viewBox="0 0 24 24">
  <path id="aitd" d="M16,24H8a8.009,8.009,0,0,1-8-8V8A8.009,8.009,0,0,1,8,0h8a8.009,8.009,0,0,1,8,8v8A8.009,8.009,0,0,1,16,24ZM11.355,13.7l-.053.027c-.022.011-.038.019-.054.029l-.209.127c-.132.08-.268.161-.4.247l-.16.107c-.954.639-1.939,1.3-2.91,1.945a.309.309,0,0,0-.151.247c-.03.251-.067.5-.1.75l-.01.07q-.06.435-.122.872v.007c-.045.319-.09.638-.133.954a1.751,1.751,0,0,0,0,.238c.032-.019.062-.034.09-.049a1.09,1.09,0,0,0,.1-.057L9.9,17.521l.072-.046c.263-.168.536-.342.8-.511a.36.36,0,0,0,.184-.264l.152-1.087.235-1.742A.744.744,0,0,0,11.355,13.7Zm6.27-3.262c-1.208.555-2.293,1.085-3.319,1.619,0,.009,0,.017,0,.023a.105.105,0,0,0,0,.029q.059.455.121.91.116.88.235,1.761c.056.425.114.855.172,1.278l.041.3.048.361c.053.4.106.8.161,1.193.041.309.08.589.12.855.012.077.025.1.084.1a.344.344,0,0,0,.049,0c.039,0,.077-.011.115-.017l.078-.012,1.955-.288,1.061-.152c.128-.018.144-.038.13-.169-.019-.149-.039-.3-.059-.445v-.007q-.021-.153-.041-.307c-.024-.178-.047-.356-.071-.535-.037-.279-.074-.568-.114-.848q-.051-.382-.1-.764v-.008q-.052-.378-.1-.756-.13-.967-.257-1.933l-.241-1.8c-.01-.075-.021-.151-.033-.229C17.641,10.546,17.633,10.494,17.626,10.44ZM11.2,12.21v0a42.507,42.507,0,0,0-5.209,3.072l.138.049.433.138.012,0c.336.107.684.218,1.025.331a.368.368,0,0,0,.37-.055c.095-.068.193-.134.288-.2s.163-.109.243-.165c1.352-.946,2.61-1.743,3.848-2.438,1.925-1.081,3.989-2.109,6.311-3.142l.549-.24.664-.29.029-.012a.131.131,0,0,0,.09-.07l-.118,0-.111,0c-.042,0-.077,0-.111,0-.685.075-1.421.155-2.16.241L17,9.5c-.685.08-1.393.163-2.089.258-.812.111-1.769.245-2.711.4-1.318.221-2.681.5-4.05.834-1.748.424-3.168.832-4.47,1.285A24.312,24.312,0,0,0,.755,13.489l-.123.067.037.022,1.867.6a.514.514,0,0,0,.157.025.5.5,0,0,0,.216-.048l.372-.167A52.91,52.91,0,0,1,8.7,11.864a25.291,25.291,0,0,1,2.931-.79L12,11.009c-1.668.5-3.123.984-4.448,1.492a40.517,40.517,0,0,0-4.3,1.9l.042.016c.026.01.05.019.076.027l.484.154c.377.12.768.244,1.15.37a.521.521,0,0,0,.424-.034l.61-.317c.522-.271,1.062-.552,1.6-.821,1.123-.571,2.286-1.091,3.456-1.545ZM7.9,5.033c.289.168.588.341.885.509a.2.2,0,0,1,.113.239c-.025.158-.047.319-.068.475-.009.063-.017.124-.025.185q-.14,1.038-.284,2.08c-.078.578-.159,1.164-.238,1.732v.006l-.064.463a.412.412,0,0,0,0,.082l3.66-.758.387-2.788.115-.827c.2-.015.39-.022.579-.022s.388.007.58.022c.039.309.083.624.125.929.032.235.065.47.1.705l.027.206c.061.472.124.961.2,1.441l3.488-.429c0-.028-.006-.055-.009-.08a.81.81,0,0,1-.009-.1c-.061-.428-.118-.864-.173-1.285V7.8q-.03-.233-.061-.466l-.008-.062q-.062-.466-.122-.93a.348.348,0,0,0-.2-.292q-.494-.246-.987-.5l-.015-.008-.564-.284a.561.561,0,0,0-.347-.059l-.151.023c-.179.027-.363.055-.545.081a6.4,6.4,0,0,1-1.213.12h-.507a2.655,2.655,0,0,1-.3-.026c-.153-.021-.308-.044-.459-.067L11.563,5.3,9.7,5.02,7.515,4.687a.577.577,0,0,0-.144-.011A.243.243,0,0,0,7.5,4.8l.395.228,0,0Z" fill="#fff"/>
</svg>
