<svg xmlns="http://www.w3.org/2000/svg" width="24" height="24" viewBox="0 0 24 24">
  <path id="tuite" d="M16,24H8a8.009,8.009,0,0,1-8-8V8A8.009,8.009,0,0,1,8,0h8a8.009,8.009,0,0,1,8,8v8A8.009,8.009,0,0,1,16,24ZM4.612,17.076h0a8.6,8.6,0,0,0,4.766,1.5c.129,0,.265,0,.413-.01,5.382-.242,8.907-4.032,8.981-9.654a5.922,5.922,0,0,0,1.567-1.7,5.643,5.643,0,0,1-1.741.5,3.476,3.476,0,0,0,1.348-1.776,7.312,7.312,0,0,1-2.061.783A2.825,2.825,0,0,0,15.655,5.7a3.626,3.626,0,0,0-2.789,1.324,2.986,2.986,0,0,0-.553,2.629A9.256,9.256,0,0,1,5.639,6.286a3.192,3.192,0,0,0-.276,2.448A3.049,3.049,0,0,0,6.6,10.616a3.7,3.7,0,0,1-1.382-.391,3.235,3.235,0,0,0,2.517,3.232,3.84,3.84,0,0,1-.794.084,3.437,3.437,0,0,1-.588-.049A3.213,3.213,0,0,0,9.33,15.763a6.518,6.518,0,0,1-3.964,1.371A4.819,4.819,0,0,1,4.612,17.076Z" fill="#fff"/>
</svg>
